<?xml version="1.0" standalone="no"?>
<!DOCTYPE svg PUBLIC "-//W3C//DTD SVG 20010904//EN"
 "http://www.w3.org/TR/2001/REC-SVG-20010904/DTD/svg10.dtd">
<svg version="1.0" xmlns="http://www.w3.org/2000/svg"
 width="512.000000pt" height="512.000000pt" viewBox="0 0 512.000000 512.000000"
 preserveAspectRatio="xMidYMid meet">
<metadata>
Created by potrace 1.14, written by Peter Selinger 2001-2017
</metadata>
<g transform="translate(0.000000,512.000000) scale(0.100000,-0.100000)"
fill="#000000" stroke="none">
<path d="M2299 3785 c-3 -2 -25 -6 -49 -9 -25 -3 -54 -8 -65 -10 -130 -28
-209 -58 -214 -81 -2 -13 -5 -15 -11 -5 -6 9 -24 4 -71 -22 -117 -62 -183
-111 -280 -207 -97 -97 -145 -161 -213 -283 l-37 -67 43 -19 43 -19 30 56 c57
105 110 176 195 262 134 136 280 222 465 275 106 31 190 41 309 39 72 -2 142
-5 156 -8 186 -36 330 -98 473 -201 63 -45 164 -141 194 -186 9 -14 23 -31 30
-38 7 -8 18 -22 24 -33 5 -11 15 -16 21 -13 6 4 8 3 5 -3 -3 -5 11 -41 31 -80
l37 -70 43 19 42 19 -21 42 c-91 179 -252 359 -409 459 -104 66 -266 139 -342
153 -13 3 -36 8 -53 11 -68 15 -366 30 -376 19z"/>
<path d="M2230 3565 c-242 -50 -441 -178 -592 -379 l-59 -79 42 -23 c42 -25
59 -24 59 2 0 8 5 14 10 14 6 0 10 7 10 15 0 20 162 183 225 225 28 18 53 38
57 44 4 6 8 8 8 3 0 -4 21 3 48 16 53 27 159 63 214 73 22 3 39 13 41 23 4 12
5 13 6 1 1 -12 21 -15 114 -15 128 -1 155 -4 252 -35 89 -28 175 -71 245 -122
70 -51 185 -170 217 -225 25 -44 37 -51 48 -32 4 5 18 14 31 19 29 11 31 34 5
52 -10 7 -21 23 -25 36 -11 33 -171 192 -241 239 -33 22 -82 52 -110 65 -66
34 -215 80 -237 74 -10 -2 -16 0 -12 5 3 5 4 9 2 9 -2 1 -63 4 -135 7 -94 4
-137 2 -147 -6 -8 -7 -16 -8 -18 -3 -1 4 -28 3 -58 -3z"/>
<path d="M2230 3134 c-85 -26 -131 -89 -131 -180 0 -29 2 -57 4 -61 3 -5 8
-25 11 -45 3 -21 12 -52 20 -70 14 -32 14 -33 15 -7 1 15 9 36 19 48 17 21 17
20 17 -41 1 -54 5 -70 32 -108 44 -64 139 -150 165 -150 20 0 4 30 -29 56 -86
64 -139 132 -143 184 -6 67 1 92 30 122 38 37 46 32 23 -13 -26 -50 -22 -117
10 -172 36 -61 126 -140 144 -126 9 9 5 17 -20 37 -94 76 -130 136 -122 201 9
67 31 108 72 129 34 19 34 16 -3 -45 -22 -37 -34 -69 -34 -93 0 -44 31 -105
80 -157 43 -45 95 -121 112 -160 7 -17 12 -80 12 -158 l1 -130 34 -3 c41 -4
78 28 124 108 30 52 32 61 34 172 3 119 -6 150 -32 115 -18 -25 -29 -21 -67
24 -34 40 -38 41 -103 44 -73 4 -101 18 -139 69 -31 40 -27 116 8 185 15 29
29 63 32 74 4 22 42 67 56 67 5 0 6 -20 3 -44 -6 -44 -5 -46 37 -76 24 -18 54
-36 67 -41 13 -5 21 -12 18 -16 -18 -17 92 -153 124 -153 14 0 52 145 57 216
4 62 1 77 -19 113 -27 49 -95 91 -154 95 -23 2 -69 -5 -104 -16 -58 -18 -66
-18 -102 -4 -56 23 -108 26 -159 10z"/>
<path d="M185 2960 c-1 -3 -2 -23 -1 -45 1 -35 4 -39 26 -39 14 0 27 -6 30
-13 4 -10 5 -328 1 -369 -1 -5 -13 -10 -28 -10 -26 1 -28 -2 -29 -39 l0 -41
228 0 228 0 -2 91 -3 90 -61 3 -61 3 1 -46 c1 -26 -3 -49 -8 -53 -16 -10 -96
-8 -99 3 -3 9 -1 131 2 145 0 3 20 6 43 5 l43 0 1 42 1 42 -46 3 -45 3 1 55
c1 93 -2 87 53 86 53 0 52 2 53 -64 l1 -32 63 1 63 2 -3 90 -2 91 -223 0
c-123 1 -225 -1 -227 -4z"/>
<path d="M835 2955 c-93 -42 -144 -147 -139 -285 5 -121 49 -211 122 -249 l37
-20 -32 -11 c-38 -14 -40 -22 -16 -54 15 -20 22 -22 55 -13 32 8 46 5 105 -23
37 -17 85 -34 105 -37 34 -4 39 -2 48 22 17 44 13 65 -12 65 -13 0 -46 10 -75
22 l-52 21 52 31 c77 46 110 112 115 232 7 152 -35 246 -129 295 -45 22 -138
25 -184 4z m131 -126 c16 -45 12 -286 -5 -316 -7 -15 -21 -23 -37 -23 -43 0
-55 47 -51 209 2 118 5 142 21 159 25 28 58 15 72 -29z"/>
<path d="M1177 2955 c-2 -5 -3 -26 -3 -45 1 -28 5 -35 21 -35 19 0 20 -8 25
-195 6 -220 7 -224 80 -264 57 -31 157 -31 210 -1 71 42 75 54 75 265 0 119 4
191 10 192 6 0 17 2 24 2 9 1 16 13 17 31 4 58 1 60 -86 59 -44 -1 -84 -2 -90
-3 -5 -1 -10 -21 -10 -46 0 -31 4 -44 13 -42 9 1 12 -39 13 -173 0 -96 -1
-183 -4 -193 -6 -25 -50 -33 -70 -13 -24 24 -26 373 -2 381 14 4 18 33 11 80
0 6 -47 10 -116 10 -67 0 -116 -4 -118 -10z"/>
<path d="M1673 2953 c-2 -6 -3 -26 -1 -44 3 -30 6 -33 33 -34 l30 0 0 -192 c1
-167 -1 -193 -15 -194 -8 -1 -22 -2 -30 -3 -11 -1 -15 -13 -15 -41 l0 -40 145
0 145 0 0 40 c0 36 -2 40 -29 42 -15 1 -31 4 -34 8 -4 4 -6 210 -3 358 1 23 5
28 24 27 43 -4 46 -1 44 42 l-2 41 -144 1 c-100 1 -145 -2 -148 -11z"/>
<path d="M2995 2942 c-96 -46 -130 -119 -129 -277 0 -134 20 -186 90 -239 131
-100 319 -19 350 149 22 121 -5 262 -61 320 -59 62 -174 83 -250 47z m126 -99
c11 -12 14 -55 14 -173 0 -171 -5 -188 -52 -186 -23 1 -30 8 -39 36 -15 46
-12 287 5 318 14 26 52 29 72 5z"/>
<path d="M3378 2933 c-4 -7 -4 -37 0 -70 1 -7 11 -13 21 -13 18 0 19 -10 17
-192 -1 -189 -1 -193 -22 -191 -18 2 -20 -3 -20 -44 l1 -46 100 1 c162 1 147
-4 143 45 -2 29 -8 42 -18 42 -12 0 -16 17 -18 82 -3 80 -2 82 19 78 12 -2 23
-6 24 -7 1 -2 15 -50 30 -108 15 -58 31 -112 35 -120 6 -11 25 -15 77 -14 l68
1 0 44 c0 26 -4 43 -11 42 -6 -1 -21 40 -34 90 -12 51 -25 97 -27 104 -2 6 4
14 14 17 26 8 41 37 47 88 7 54 -15 100 -67 142 l-39 31 -168 3 c-92 2 -170 0
-172 -5z m269 -100 c18 -24 16 -83 -4 -105 -9 -10 -27 -18 -40 -18 -22 0 -23
3 -23 75 l0 75 27 -5 c16 -2 34 -12 40 -22z"/>
<path d="M3939 2938 c-1 -2 -2 -21 -3 -42 -2 -30 2 -40 16 -44 23 -6 23 -8
-13 -196 -17 -88 -31 -168 -32 -178 -1 -11 -9 -16 -22 -15 -17 2 -20 -5 -23
-43 l-3 -45 98 2 c54 1 106 2 116 2 13 1 17 10 17 41 0 36 -6 44 -31 42 -9 -1
1 81 12 94 9 12 84 12 96 0 4 -4 8 -14 10 -24 9 -61 8 -67 -11 -67 -16 0 -20
-9 -23 -42 -2 -24 1 -43 7 -44 5 0 53 -1 105 -1 52 0 101 1 109 1 16 1 21 80
5 82 -5 1 -14 2 -21 3 -10 1 -34 109 -82 364 -4 17 0 22 15 22 10 0 19 1 20 3
0 1 2 21 5 45 l5 42 -185 0 c-103 0 -187 -1 -187 -2z m187 -96 c2 -9 5 -30 8
-47 3 -16 8 -48 11 -70 4 -22 8 -50 10 -62 3 -21 0 -23 -36 -23 -39 0 -40 1
-35 28 3 15 8 50 11 77 9 88 17 126 23 120 3 -3 7 -13 8 -23z"/>
<path d="M4400 2895 c0 -31 4 -45 13 -44 49 6 48 13 45 -193 l-3 -193 -27 1
c-26 1 -28 -1 -28 -42 0 -24 3 -44 8 -45 4 0 104 -1 222 -1 l215 -1 3 129 3
129 -61 -3 -60 -4 0 -82 0 -82 -55 0 -55 1 0 193 c1 140 5 192 13 193 7 1 23
2 37 2 22 2 25 6 25 42 l0 40 -147 3 -148 3 0 -46z"/>
<path d="M2168 2631 c-4 -27 2 -38 33 -69 20 -21 64 -57 97 -80 58 -41 61 -41
64 -20 2 18 -13 35 -69 81 -40 32 -83 72 -96 89 l-24 30 -5 -31z"/>
<path d="M2162 2509 c3 -29 12 -37 88 -80 93 -53 100 -55 100 -36 0 12 -49 52
-132 107 -21 14 -38 28 -38 33 0 4 -5 7 -11 7 -6 0 -9 -14 -7 -31z"/>
<path d="M2161 2403 c4 -21 8 -38 7 -38 -7 0 21 -60 44 -93 43 -62 68 -82 104
-82 40 0 46 15 38 96 l-7 63 -87 46 c-49 25 -93 45 -98 45 -6 0 -7 -14 -1 -37z"/>
<path d="M4714 2339 c-3 -5 13 -9 35 -9 23 0 41 4 41 8 0 11 -69 12 -76 1z"/>
<path d="M2735 2310 c-3 -6 -1 -10 4 -10 6 0 11 -20 11 -45 0 -29 -4 -45 -12
-45 -10 0 -10 -2 0 -9 16 -10 77 -4 102 9 28 15 31 60 6 85 -23 23 -100 33
-111 15z m79 -27 c8 -25 1 -56 -12 -61 -8 -2 -12 11 -12 37 0 42 14 55 24 24z"/>
<path d="M2885 2310 c-3 -6 -1 -10 4 -10 16 0 14 -90 -1 -91 -7 0 -4 -4 6 -8
24 -9 66 -2 66 11 0 5 -4 6 -10 3 -13 -8 -13 78 0 91 8 8 0 11 -24 12 -19 1
-38 -3 -41 -8z"/>
<path d="M2975 2263 c0 -32 3 -60 7 -63 4 -3 31 -5 60 -4 39 0 53 4 53 15 1
22 -18 29 -30 12 -15 -20 -47 -10 -39 12 3 8 10 12 15 9 5 -3 9 2 9 11 0 9 -4
14 -9 11 -5 -3 -12 1 -15 10 -9 23 -8 24 20 24 16 0 23 -4 18 -11 -4 -7 1 -10
12 -7 11 2 19 10 19 18 0 11 -15 16 -60 18 l-61 2 1 -57z"/>
<path d="M3125 2297 c-21 -30 -19 -74 4 -87 26 -14 74 -13 89 2 21 21 13 38
-18 38 -30 0 -40 -14 -17 -24 6 -3 3 -5 -8 -3 -14 1 -21 11 -23 31 -4 35 10
52 29 34 24 -22 41 -21 37 4 -4 32 -72 35 -93 5z"/>
<path d="M3272 2304 c-24 -16 -29 -53 -12 -85 11 -20 63 -26 87 -11 24 15 26
65 3 90 -24 26 -47 28 -78 6z m48 -34 c5 -32 -1 -50 -15 -50 -10 0 -15 10 -15
33 0 48 24 62 30 17z"/>
<path d="M3389 2313 c-1 -4 0 -12 1 -18 7 -27 5 -75 -2 -75 -4 0 -8 -4 -8 -9
0 -12 43 -19 66 -10 10 4 13 8 7 8 -24 2 -14 31 11 31 13 0 29 7 36 15 13 16
5 55 -13 56 -7 0 -31 2 -54 5 -24 3 -44 1 -44 -3z m78 -36 c-6 -20 -27 -19
-27 2 0 14 5 19 15 14 9 -3 14 -10 12 -16z"/>
<path d="M3552 2303 c-38 -32 -33 -80 10 -98 38 -16 64 -6 78 30 12 32 2 61
-26 74 -33 15 -38 14 -62 -6z m53 -41 c-2 -9 -4 -23 -4 -29 -1 -7 -8 -13 -16
-13 -16 0 -20 35 -9 64 8 22 33 2 29 -22z"/>
<path d="M3683 2313 c-21 -7 -15 -38 12 -63 13 -12 22 -27 18 -33 -3 -5 -10
-3 -15 7 -12 22 -28 20 -28 -3 0 -21 48 -33 74 -19 23 13 20 33 -9 64 -25 27
-36 49 -13 26 18 -18 37 -14 31 6 -4 18 -39 25 -70 15z"/>
<path d="M3798 2309 c-20 -11 -14 -37 14 -57 10 -7 18 -21 18 -30 -1 -15 -3
-14 -16 3 -13 17 -16 18 -24 5 -12 -20 1 -31 40 -32 50 -2 61 39 18 70 -10 7
-18 18 -18 25 0 8 3 8 12 -1 18 -18 28 -15 28 8 0 15 -7 20 -27 20 -16 0 -36
-5 -45 -11z"/>
<path d="M3922 2304 c-29 -20 -31 -79 -3 -94 53 -28 108 5 96 58 -3 18 -16 34
-31 41 -32 14 -35 14 -62 -5z m51 -28 c9 -23 1 -51 -14 -51 -8 0 -15 13 -17
33 -2 23 1 32 11 32 8 0 17 -6 20 -14z"/>
<path d="M4061 2303 c-25 -17 -28 -65 -5 -87 19 -20 80 -21 87 -2 7 18 -17 28
-32 13 -15 -15 -23 -4 -26 33 -2 25 1 31 14 27 42 -12 45 -11 46 8 0 15 -7 20
-32 21 -18 1 -41 -5 -52 -13z"/>
<path d="M4182 2290 c0 -15 -8 -42 -16 -59 -20 -38 -21 -36 14 -36 24 0 29 3
24 18 -4 12 0 17 15 17 22 0 30 -20 9 -21 -7 0 -4 -4 7 -8 11 -4 27 -6 36 -4
16 4 16 8 2 41 -8 19 -13 45 -10 57 3 20 -1 23 -38 23 -40 1 -42 0 -43 -28z
m48 -26 c0 -8 -4 -14 -9 -14 -6 0 -9 9 -8 19 1 22 17 18 17 -5z"/>
<path d="M4312 2308 c-17 -17 -15 -23 13 -54 13 -14 21 -32 18 -38 -5 -7 -9
-5 -11 7 -5 23 -27 16 -27 -9 0 -13 7 -19 25 -19 63 0 80 38 33 74 l-28 21 28
-6 c25 -6 28 -4 25 12 -4 22 -58 30 -76 12z"/>
<path d="M4410 2295 c0 -16 6 -25 16 -25 10 0 14 6 10 15 -3 8 0 15 6 15 7 0
9 -19 6 -53 l-4 -53 33 4 c21 3 30 8 26 16 -10 15 -11 86 -1 86 4 0 8 -7 8
-16 0 -22 24 -12 28 12 3 18 -3 20 -63 22 -63 1 -65 1 -65 -23z"/>
<path d="M4569 2316 c0 0 -2 -18 -4 -40 -2 -21 -11 -46 -20 -56 -15 -16 -14
-18 15 -22 27 -4 31 -2 27 14 -4 14 1 18 20 18 22 0 24 -2 13 -15 -13 -16 -8
-17 65 -17 44 0 46 1 39 27 -8 32 9 33 24 1 5 -13 20 -26 31 -29 22 -5 26 10
21 71 -1 13 3 29 9 36 9 10 4 13 -19 14 -27 1 -29 -1 -25 -31 l5 -32 -15 32
c-12 26 -20 32 -45 31 -29 -1 -39 -11 -21 -22 15 -10 6 -81 -11 -84 -12 -2
-18 8 -24 40 -4 24 -7 48 -6 54 2 8 -75 18 -79 10z m50 -58 c1 -5 -6 -8 -15
-8 -11 0 -14 5 -10 16 3 9 6 21 7 27 0 12 17 -20 18 -35z"/>
<path d="M4853 2305 c-30 -21 -32 -80 -4 -95 24 -12 61 -13 81 -1 16 11 19 76
5 90 -20 19 -60 22 -82 6z m52 -52 c0 -17 -7 -28 -16 -28 -15 0 -24 37 -15 62
10 24 33 -2 31 -34z"/>
<path d="M1415 2160 c-3 -5 -14 -10 -24 -10 -10 0 -24 -7 -31 -14 -9 -12 -4
-28 26 -83 104 -188 285 -377 357 -375 38 1 67 -6 67 -18 0 -5 -17 -6 -37 -4
l-38 5 34 -26 c56 -40 200 -111 276 -135 125 -38 208 -52 335 -55 179 -4 400
33 400 69 0 8 2 8 8 -1 6 -9 16 -8 42 5 19 9 38 20 41 25 4 5 11 7 17 3 6 -3
18 1 26 10 9 8 16 13 16 10 0 -4 18 3 41 14 32 17 38 24 29 35 -8 9 -8 15 0
20 6 4 9 1 8 -6 -7 -29 25 -16 101 41 44 34 85 69 91 78 5 9 10 13 10 8 0 -13
96 92 146 161 59 82 126 205 117 214 -5 4 -15 9 -23 11 -8 2 -21 9 -28 16 -19
17 -27 9 -55 -51 -13 -28 -58 -98 -100 -154 -43 -56 -77 -106 -77 -112 0 -6
-6 -8 -14 -5 -9 3 -17 -3 -21 -16 -4 -12 -9 -19 -12 -16 -5 4 -87 -56 -103
-75 -3 -4 -31 -21 -63 -39 -32 -18 -54 -36 -50 -42 3 -6 1 -8 -4 -5 -9 6 -35
-3 -128 -43 -28 -12 -97 -33 -115 -35 -8 -1 -28 -5 -45 -9 -16 -3 -41 -9 -55
-12 -58 -13 -249 -12 -330 1 -187 31 -333 95 -504 219 -93 68 -230 236 -290
354 -28 55 -31 58 -41 42z m1121 -670 c0 -12 -4 -16 -9 -11 -5 5 -6 14 -3 20
10 15 12 14 12 -9z"/>
<path d="M1650 2149 c-45 -27 -46 -29 -35 -37 6 -4 22 -26 37 -48 52 -81 151
-180 245 -245 73 -50 183 -105 183 -91 0 4 4 2 8 -4 10 -15 91 -41 182 -58
108 -21 283 -15 395 14 50 12 95 26 100 30 6 4 31 15 58 25 26 10 47 22 47 28
0 6 3 7 7 4 14 -14 164 94 245 177 46 47 138 166 138 179 0 5 -67 47 -75 47
-2 0 -22 -26 -44 -57 -113 -166 -269 -276 -479 -340 -121 -36 -317 -38 -437
-4 -207 58 -391 187 -493 343 -20 31 -39 57 -42 58 -3 0 -21 -10 -40 -21z
m1183 -379 c3 -11 1 -20 -4 -20 -5 0 -9 9 -9 20 0 11 2 20 4 20 2 0 6 -9 9
-20z"/>
</g>
</svg>
